{"title":"Alice Through the Looking Glass 2016 720P HDTC X264 AC3 TiTAN","uid":14743006,"size":2659414801,"categoryP":"video","categoryS":"movies","magnet":"?xt=urn:btih:55de8e80031bfcb434087ba3e615854eae52e4e9&amp;dn=Alice+Through+the+Looking+Glass+2016+720P+HDTC+X264+AC3+TiTAN&amp;tr=udp%3A%2F%2Ftracker.leechers-paradise.org%3A6969&amp;tr=udp%3A%2F%2Fzer0day.ch%3A1337&amp;tr=udp%3A%2F%2Fopen.demonii.com%3A1337&amp;tr=udp%3A%2F%2Ftracker.coppersurfer.tk%3A6969&amp;tr=udp%3A%2F%2Fexodus.desync.com%3A6969","seeders":12,"leechers":0,"uploader":"makintos13","files":2,"time":1464697661,"description":"Alice Through the Looking Glass 2016 720P HDTC X264 AC3 TiTAN\r\n\r\nscreens:\r\n \nhttps://imgmak.com/TD6\r\n \nhttps://imgmak.com/TD9\r\n \nhttps://imgmak.com/TDM\r\n \nhttps://imgmak.com/TDO\r\n \nhttps://imgmak.com/TDP\r\n\r\nSource: Mp4Ba\r\n\r\nOK. I cropped off main line of subs removing 95% of them. you still get the occasional sub about 15 times for a second in a 2 hour movie. Also vid was dull so did a little work making it look like it should. Enjoy\r\n\r\nGeneral\r\n\r\nFormat                                   : Matroska\r\nFormat version                           : Version 2\r\nFile size                                : 2.48 GiB\r\nDuration                                 : 1h 52mn\r\nOverall bit rate mode                    : Variable\r\nOverall bit rate                         : 3 142 Kbps\r\nEncoded date                             : UTC 2016-05-30 20:03:43\r\n\r\nVideo\r\nID                                       : 1\r\nFormat                                   : AVC\r\nFormat/Info                              : Advanced Video Codec\r\nFormat profile                           :   \r\nFormat settings, CABAC                   : Yes\r\nFormat settings, ReFrames                : 3 frames\r\nCodec ID                                 : V_MPEG4/ISO/AVC\r\nDuration                                 : 1h 52mn\r\nBit rate mode                            : Variable\r\nBit rate                                 : 2 888 Kbps\r\nMaximum bit rate                         : 40.0 Mbps\r\nWidth                                    : 1 264 pixels\r\nHeight                                   : 592 pixels\r\nDisplay aspect ratio                     : 2.135\r\nFrame rate mode                          : Constant\r\nFrame rate                               : 29.970 fps\r\nColor space                              : YUV\r\nChroma subsampling                       : 4:2:0\r\nBit depth                                : 8 bits\r\nScan type                                : Progressive\r\nBits/(Pixel*Frame)                       : 0.129\r\nStream size                              : 2.28 GiB (92%)\r\nDefault                                  : Yes\r\nForced                                   : No\r\nColor primaries                          : BT.709\r\nTransfer characteristics                 : BT.709\r\nMatrix coefficients                      : BT.709\r\n\r\nAudio\r\nID                                       : 2\r\nFormat                                   : AC-3\r\nFormat/Info                              : Audio Coding 3\r\nMode extension                           : CM (complete main)\r\nFormat settings, Endianness              : Big\r\nCodec ID                                 : A_AC3\r\nDuration                                 : 1h 52mn\r\nBit rate mode                            : Constant\r\nBit rate                                 : 192 Kbps\r\nChannel(s)                               : 2 channels\r\nChannel positions                        : Front: L R\r\nSampling rate                            : 44.1 KHz\r\nBit depth                                : 16 bits\r\nCompression mode                         : Lossy\r\nStream size                              : 155 MiB (6%)\r\nLanguage                                 : English\r\nDefault                                  : Yes\r\nForced                                   : No","torrent":{"xt":"urn:btih:55de8e80031bfcb434087ba3e615854eae52e4e9","amp;dn":"Alice+Through+the+Looking+Glass+2016+720P+HDTC+X264+AC3+TiTAN","amp;tr":["udp%3A%2F%2Ftracker.leechers-paradise.org%3A6969","udp%3A%2F%2Fzer0day.ch%3A1337","udp%3A%2F%2Fopen.demonii.com%3A1337","udp%3A%2F%2Ftracker.coppersurfer.tk%3A6969","udp%3A%2F%2Fexodus.desync.com%3A6969"],"infoHash":"55de8e80031bfcb434087ba3e615854eae52e4e9","infoHashBuffer":{"type":"Buffer","data":[85,222,142,128,3,27,252,180,52,8,123,163,230,21,133,78,174,82,228,233]},"announce":[],"urlList":[]}}